<svg width="16" height="16" viewBox="0 0 16 16" fill="none" xmlns="http://www.w3.org/2000/svg">
<path d="M0.761778 14.9168C0.926898 15.0778 1.14955 15.166 1.38011 15.1618C1.60998 15.1623 1.83127 15.0746 1.99844 14.9168L12.8834 4.0216V13.4235C12.8834 13.9068 13.2752 14.2985 13.7584 14.2985C13.9935 14.3049 14.2209 14.2151 14.3883 14.05C14.5556 13.8849 14.6484 13.6586 14.6451 13.4235V2.06925C14.6754 1.93614 14.6747 1.79552 14.6397 1.65851C14.5606 1.34849 14.3185 1.10641 14.0084 1.02723C13.8714 0.992244 13.7308 0.991537 13.5977 1.02185H2.24344C1.7602 1.02185 1.36844 1.4136 1.36844 1.89685C1.36844 2.3801 1.7602 2.77185 2.24344 2.77185H11.6584L0.761778 13.6685C0.594325 13.833 0.5 14.0579 0.5 14.2927C0.5 14.5274 0.594325 14.7523 0.761778 14.9168Z" fill="white" stroke="white"/>
</svg>
