<svg width="20" height="20" viewBox="0 0 20 20" fill="none" xmlns="http://www.w3.org/2000/svg">
<path fill-rule="evenodd" clip-rule="evenodd" d="M17.5888 12.9C17.2186 12.5833 17.0054 12.1205 17.0055 11.6334V7.61669C17.0055 4.32502 14.0221 1.66669 10.3388 1.66669C6.65547 1.66669 3.67214 4.32502 3.67214 7.61669V11.6334C3.67217 12.1205 3.45904 12.5833 3.08881 12.9C1.83047 14.025 2.72214 15.9417 4.50547 15.9417H7.67214C8.07617 17.067 9.14314 17.8176 10.3388 17.8176C11.5345 17.8176 12.6014 17.067 13.0055 15.9417H16.1721C17.9555 15.9417 18.8471 14.025 17.5888 12.9ZM10.3388 16.5667C9.8428 16.5648 9.3754 16.3342 9.07214 15.9417H11.5721C11.2785 16.328 10.824 16.5583 10.3388 16.5667ZM16.1805 14.6917C16.4834 14.7191 16.7719 14.5567 16.9055 14.2834C16.9703 14.1187 16.9113 13.9311 16.7638 13.8334C16.1359 13.2733 15.7729 12.4747 15.7638 11.6334V7.61669C15.7638 5.02502 13.3305 2.91669 10.3471 2.91669C7.36381 2.91669 4.93047 5.02502 4.93047 7.61669V11.6334C4.92133 12.4747 4.55834 13.2733 3.93047 13.8334C3.77991 13.9287 3.7172 14.1168 3.78047 14.2834C3.91405 14.5567 4.20251 14.7191 4.50547 14.6917H16.1805Z" fill="white"/>
<path d="M17.0055 11.6334L17.5055 11.6334V11.6334H17.0055ZM17.5888 12.9L17.9221 12.5272L17.9138 12.5201L17.5888 12.9ZM3.67214 11.6334H3.17214V11.6334L3.67214 11.6334ZM3.08881 12.9L2.76373 12.52L2.75555 12.5273L3.08881 12.9ZM7.67214 15.9417L8.14273 15.7727L8.02387 15.4417H7.67214V15.9417ZM13.0055 15.9417V15.4417H12.6537L12.5349 15.7727L13.0055 15.9417ZM9.07214 15.9417V15.4417H8.05398L8.67648 16.2474L9.07214 15.9417ZM10.3388 16.5667L10.3369 17.0668L10.3474 17.0666L10.3388 16.5667ZM11.5721 15.9417L11.9702 16.2442L12.5802 15.4417H11.5721V15.9417ZM16.9055 14.2834L17.3547 14.5029L17.3634 14.4851L17.3707 14.4666L16.9055 14.2834ZM16.1805 14.6917L16.2256 14.1937L16.2031 14.1917H16.1805V14.6917ZM16.7638 13.8334L16.431 14.2065L16.4577 14.2303L16.4875 14.2501L16.7638 13.8334ZM15.7638 11.6334H15.2638L15.2638 11.6388L15.7638 11.6334ZM4.93047 11.6334L5.43047 11.6388V11.6334H4.93047ZM3.93047 13.8334L4.1979 14.2558L4.23263 14.2338L4.26331 14.2065L3.93047 13.8334ZM3.78047 14.2834L3.31305 14.4609L3.32119 14.4823L3.33126 14.5029L3.78047 14.2834ZM4.50547 14.6917V14.1917H4.48288L4.46037 14.1937L4.50547 14.6917ZM16.5055 11.6333C16.5054 12.2667 16.7825 12.8683 17.2638 13.28L17.9138 12.5201C17.6546 12.2984 17.5055 11.9744 17.5055 11.6334L16.5055 11.6333ZM16.5055 7.61669V11.6334H17.5055V7.61669H16.5055ZM10.3388 2.16669C13.8012 2.16669 16.5055 4.65333 16.5055 7.61669H17.5055C17.5055 3.99671 14.2431 1.16669 10.3388 1.16669V2.16669ZM4.17214 7.61669C4.17214 4.65333 6.87638 2.16669 10.3388 2.16669V1.16669C6.43456 1.16669 3.17214 3.99671 3.17214 7.61669H4.17214ZM4.17214 11.6334V7.61669H3.17214V11.6334H4.17214ZM3.41381 13.28C3.89511 12.8683 4.17218 12.2667 4.17214 11.6333L3.17214 11.6334C3.17216 11.9744 3.02297 12.2984 2.76381 12.5201L3.41381 13.28ZM4.50547 15.4417C3.80216 15.4417 3.31375 15.0698 3.1098 14.6317C2.91027 14.2031 2.96414 13.6822 3.42206 13.2728L2.75555 12.5273C1.95514 13.2429 1.82568 14.2428 2.20323 15.0538C2.57637 15.8553 3.42546 16.4417 4.50547 16.4417V15.4417ZM7.67214 15.4417H4.50547V16.4417H7.67214V15.4417ZM10.3388 17.3176C9.35414 17.3176 8.47546 16.6995 8.14273 15.7727L7.20155 16.1106C7.67688 17.4346 8.93215 18.3176 10.3388 18.3176V17.3176ZM12.5349 15.7727C12.2022 16.6995 11.3235 17.3176 10.3388 17.3176V18.3176C11.7455 18.3176 13.0007 17.4346 13.4761 16.1106L12.5349 15.7727ZM16.1721 15.4417H13.0055V16.4417H16.1721V15.4417ZM17.2556 13.2728C17.7135 13.6822 17.7673 14.2031 17.5678 14.6317C17.3639 15.0698 16.8755 15.4417 16.1721 15.4417V16.4417C17.2522 16.4417 18.1012 15.8553 18.4744 15.0538C18.8519 14.2428 18.7225 13.2429 17.9221 12.5273L17.2556 13.2728ZM8.67648 16.2474C9.07401 16.7619 9.68672 17.0642 10.3369 17.0667L10.3407 16.0667C9.99888 16.0654 9.67679 15.9065 9.4678 15.636L8.67648 16.2474ZM11.5721 15.4417H9.07214V16.4417H11.5721V15.4417ZM10.3474 17.0666C10.9858 17.0556 11.5839 16.7526 11.9702 16.2442L11.1741 15.6391C10.9732 15.9034 10.6622 16.0611 10.3302 16.0668L10.3474 17.0666ZM16.4563 14.0638C16.4138 14.1508 16.322 14.2025 16.2256 14.1937L16.1354 15.1896C16.6449 15.2358 17.13 14.9626 17.3547 14.5029L16.4563 14.0638ZM16.4875 14.2501C16.4383 14.2175 16.4187 14.155 16.4403 14.1001L17.3707 14.4666C17.522 14.0825 17.3842 13.6448 17.0401 13.4166L16.4875 14.2501ZM15.2638 11.6388C15.2745 12.6207 15.6982 13.5528 16.431 14.2065L17.0966 13.4602C16.5737 12.9938 16.2714 12.3286 16.2638 11.6279L15.2638 11.6388ZM15.2638 7.61669V11.6334H16.2638V7.61669H15.2638ZM10.3471 3.41669C13.1235 3.41669 15.2638 5.36562 15.2638 7.61669H16.2638C16.2638 4.68442 13.5374 2.41669 10.3471 2.41669V3.41669ZM5.43047 7.61669C5.43047 5.36562 7.57075 3.41669 10.3471 3.41669V2.41669C7.15687 2.41669 4.43047 4.68442 4.43047 7.61669H5.43047ZM5.43047 11.6334V7.61669H4.43047V11.6334H5.43047ZM4.26331 14.2065C4.99612 13.5528 5.41978 12.6207 5.43044 11.6388L4.4305 11.6279C4.42289 12.3286 4.12056 12.9938 3.59763 13.4602L4.26331 14.2065ZM4.2479 14.1058C4.26899 14.1614 4.24809 14.2241 4.1979 14.2558L3.66305 13.4109C3.31173 13.6333 3.16542 14.0722 3.31305 14.4609L4.2479 14.1058ZM4.46037 14.1937C4.36397 14.2025 4.27219 14.1508 4.22969 14.0638L3.33126 14.5029C3.55591 14.9626 4.04104 15.2358 4.55057 15.1896L4.46037 14.1937ZM16.1805 14.1917H4.50547V15.1917H16.1805V14.1917Z" fill="white"/>
</svg>
