<svg width="37" height="36" viewBox="0 0 37 36" fill="none" xmlns="http://www.w3.org/2000/svg">
<path fill-rule="evenodd" clip-rule="evenodd" d="M12.525 9H15.615C16.2135 8.99999 16.7873 9.23842 17.2096 9.66254C17.6318 10.0867 17.8677 10.6615 17.865 11.26V14.34C17.865 15.5826 16.8577 16.59 15.615 16.59H12.525C11.2824 16.59 10.275 15.5826 10.275 14.34V11.26C10.2724 10.6615 10.5083 10.0867 10.9305 9.66254C11.3528 9.23842 11.9266 8.99999 12.525 9ZM15.615 15.08C16.027 15.0746 16.3597 14.742 16.365 14.33V11.26C16.365 10.8458 16.0293 10.51 15.615 10.51H12.525C12.1108 10.51 11.775 10.8458 11.775 11.26V14.33C11.7804 14.742 12.1131 15.0746 12.525 15.08H15.615Z" fill="white"/>
<path fill-rule="evenodd" clip-rule="evenodd" d="M22.9351 9H26.0251C26.6235 8.99999 27.1974 9.23842 27.6196 9.66254C28.0418 10.0867 28.2777 10.6615 28.2751 11.26V14.34C28.2751 15.5826 27.2677 16.59 26.0251 16.59H22.9351C21.6924 16.59 20.6851 15.5826 20.6851 14.34V11.25C20.6851 10.0074 21.6924 9 22.9351 9ZM26.0251 15.08C26.437 15.0746 26.7697 14.742 26.7751 14.33V11.26C26.7751 10.8458 26.4393 10.51 26.0251 10.51H22.9351C22.5209 10.51 22.1851 10.8458 22.1851 11.26V14.33C22.1905 14.742 22.5231 15.0746 22.9351 15.08H26.0251Z" fill="white"/>
<path fill-rule="evenodd" clip-rule="evenodd" d="M12.525 19.41H15.615C16.8577 19.41 17.865 20.4174 17.865 21.66V24.75C17.865 25.9926 16.8577 27 15.615 27H12.525C11.9266 27 11.3528 26.7616 10.9305 26.3375C10.5083 25.9133 10.2724 25.3385 10.275 24.74V21.66C10.275 20.4174 11.2824 19.41 12.525 19.41ZM15.615 25.49C16.0293 25.49 16.365 25.1542 16.365 24.74V21.66C16.3597 21.248 16.027 20.9154 15.615 20.91H12.525C12.1131 20.9154 11.7804 21.248 11.775 21.66V24.74C11.775 25.1542 12.1108 25.49 12.525 25.49H15.615Z" fill="white"/>
<path fill-rule="evenodd" clip-rule="evenodd" d="M22.935 19.41H26.025C27.2677 19.41 28.275 20.4174 28.275 21.66V24.74C28.2777 25.3385 28.0418 25.9133 27.6196 26.3375C27.1973 26.7616 26.6235 27 26.025 27H22.935C22.3366 27 21.7628 26.7616 21.3405 26.3375C20.9183 25.9133 20.6824 25.3385 20.685 24.74V21.66C20.685 20.4174 21.6924 19.41 22.935 19.41ZM26.025 25.49C26.4393 25.49 26.775 25.1542 26.775 24.74V21.66C26.7697 21.248 26.437 20.9154 26.025 20.91H22.935C22.5231 20.9154 22.1904 21.248 22.185 21.66V24.74C22.185 25.1542 22.5208 25.49 22.935 25.49H26.025Z" fill="white"/>
<path fill-rule="evenodd" clip-rule="evenodd" d="M12.525 9H15.615C16.2135 8.99999 16.7873 9.23842 17.2096 9.66254C17.6318 10.0867 17.8677 10.6615 17.865 11.26V14.34C17.865 15.5826 16.8577 16.59 15.615 16.59H12.525C11.2824 16.59 10.275 15.5826 10.275 14.34V11.26C10.2724 10.6615 10.5083 10.0867 10.9305 9.66254C11.3528 9.23842 11.9266 8.99999 12.525 9ZM15.615 15.08C16.027 15.0746 16.3597 14.742 16.365 14.33V11.26C16.365 10.8458 16.0293 10.51 15.615 10.51H12.525C12.1108 10.51 11.775 10.8458 11.775 11.26V14.33C11.7804 14.742 12.1131 15.0746 12.525 15.08H15.615Z" stroke="white"/>
<path fill-rule="evenodd" clip-rule="evenodd" d="M22.9351 9H26.0251C26.6235 8.99999 27.1974 9.23842 27.6196 9.66254C28.0418 10.0867 28.2777 10.6615 28.2751 11.26V14.34C28.2751 15.5826 27.2677 16.59 26.0251 16.59H22.9351C21.6924 16.59 20.6851 15.5826 20.6851 14.34V11.25C20.6851 10.0074 21.6924 9 22.9351 9ZM26.0251 15.08C26.437 15.0746 26.7697 14.742 26.7751 14.33V11.26C26.7751 10.8458 26.4393 10.51 26.0251 10.51H22.9351C22.5209 10.51 22.1851 10.8458 22.1851 11.26V14.33C22.1905 14.742 22.5231 15.0746 22.9351 15.08H26.0251Z" stroke="white"/>
<path fill-rule="evenodd" clip-rule="evenodd" d="M12.525 19.41H15.615C16.8577 19.41 17.865 20.4174 17.865 21.66V24.75C17.865 25.9926 16.8577 27 15.615 27H12.525C11.9266 27 11.3528 26.7616 10.9305 26.3375C10.5083 25.9133 10.2724 25.3385 10.275 24.74V21.66C10.275 20.4174 11.2824 19.41 12.525 19.41ZM15.615 25.49C16.0293 25.49 16.365 25.1542 16.365 24.74V21.66C16.3597 21.248 16.027 20.9154 15.615 20.91H12.525C12.1131 20.9154 11.7804 21.248 11.775 21.66V24.74C11.775 25.1542 12.1108 25.49 12.525 25.49H15.615Z" stroke="white"/>
<path fill-rule="evenodd" clip-rule="evenodd" d="M22.935 19.41H26.025C27.2677 19.41 28.275 20.4174 28.275 21.66V24.74C28.2777 25.3385 28.0418 25.9133 27.6196 26.3375C27.1973 26.7616 26.6235 27 26.025 27H22.935C22.3366 27 21.7628 26.7616 21.3405 26.3375C20.9183 25.9133 20.6824 25.3385 20.685 24.74V21.66C20.685 20.4174 21.6924 19.41 22.935 19.41ZM26.025 25.49C26.4393 25.49 26.775 25.1542 26.775 24.74V21.66C26.7697 21.248 26.437 20.9154 26.025 20.91H22.935C22.5231 20.9154 22.1904 21.248 22.185 21.66V24.74C22.185 25.1542 22.5208 25.49 22.935 25.49H26.025Z" stroke="white"/>
</svg>
