<svg width="37" height="36" viewBox="0 0 37 36" fill="none" xmlns="http://www.w3.org/2000/svg">
<path fill-rule="evenodd" clip-rule="evenodd" d="M12.525 9H15.615C16.2135 8.99999 16.7873 9.23842 17.2095 9.66254C17.6318 10.0867 17.8676 10.6615 17.865 11.26V14.34C17.865 15.5826 16.8576 16.59 15.615 16.59H12.525C11.2823 16.59 10.275 15.5826 10.275 14.34V11.26C10.2723 10.6615 10.5082 10.0867 10.9304 9.66254C11.3527 9.23842 11.9265 8.99999 12.525 9ZM15.615 15.08C16.0269 15.0746 16.3596 14.742 16.365 14.33V11.26C16.365 10.8458 16.0292 10.51 15.615 10.51H12.525C12.1108 10.51 11.775 10.8458 11.775 11.26V14.33C11.7804 14.742 12.113 15.0746 12.525 15.08H15.615Z" fill="#E60022"/>
<path fill-rule="evenodd" clip-rule="evenodd" d="M22.935 9H26.025C26.6235 8.99999 27.1973 9.23842 27.6195 9.66254C28.0418 10.0867 28.2777 10.6615 28.275 11.26V14.34C28.275 15.5826 27.2676 16.59 26.025 16.59H22.935C21.6924 16.59 20.685 15.5826 20.685 14.34V11.25C20.685 10.0074 21.6924 9 22.935 9ZM26.025 15.08C26.437 15.0746 26.7696 14.742 26.775 14.33V11.26C26.775 10.8458 26.4392 10.51 26.025 10.51H22.935C22.5208 10.51 22.185 10.8458 22.185 11.26V14.33C22.1904 14.742 22.523 15.0746 22.935 15.08H26.025Z" fill="#E60022"/>
<path fill-rule="evenodd" clip-rule="evenodd" d="M12.525 19.41H15.615C16.8576 19.41 17.865 20.4174 17.865 21.66V24.75C17.865 25.9926 16.8576 27 15.615 27H12.525C11.9265 27 11.3527 26.7616 10.9304 26.3375C10.5082 25.9133 10.2723 25.3385 10.275 24.74V21.66C10.275 20.4174 11.2823 19.41 12.525 19.41ZM15.615 25.49C16.0292 25.49 16.365 25.1542 16.365 24.74V21.66C16.3596 21.248 16.0269 20.9154 15.615 20.91H12.525C12.113 20.9154 11.7804 21.248 11.775 21.66V24.74C11.775 25.1542 12.1108 25.49 12.525 25.49H15.615Z" fill="#E60022"/>
<path fill-rule="evenodd" clip-rule="evenodd" d="M22.935 19.41H26.025C27.2676 19.41 28.275 20.4174 28.275 21.66V24.74C28.2776 25.3385 28.0418 25.9133 27.6195 26.3375C27.1973 26.7616 26.6235 27 26.025 27H22.935C22.3365 27 21.7627 26.7616 21.3404 26.3375C20.9182 25.9133 20.6823 25.3385 20.685 24.74V21.66C20.685 20.4174 21.6923 19.41 22.935 19.41ZM26.025 25.49C26.4392 25.49 26.775 25.1542 26.775 24.74V21.66C26.7696 21.248 26.4369 20.9154 26.025 20.91H22.935C22.523 20.9154 22.1904 21.248 22.185 21.66V24.74C22.185 25.1542 22.5208 25.49 22.935 25.49H26.025Z" fill="#E60022"/>
<path fill-rule="evenodd" clip-rule="evenodd" d="M12.525 9H15.615C16.2135 8.99999 16.7873 9.23842 17.2095 9.66254C17.6318 10.0867 17.8676 10.6615 17.865 11.26V14.34C17.865 15.5826 16.8576 16.59 15.615 16.59H12.525C11.2823 16.59 10.275 15.5826 10.275 14.34V11.26C10.2723 10.6615 10.5082 10.0867 10.9304 9.66254C11.3527 9.23842 11.9265 8.99999 12.525 9ZM15.615 15.08C16.0269 15.0746 16.3596 14.742 16.365 14.33V11.26C16.365 10.8458 16.0292 10.51 15.615 10.51H12.525C12.1108 10.51 11.775 10.8458 11.775 11.26V14.33C11.7804 14.742 12.113 15.0746 12.525 15.08H15.615Z" stroke="#E60022"/>
<path fill-rule="evenodd" clip-rule="evenodd" d="M22.935 9H26.025C26.6235 8.99999 27.1973 9.23842 27.6195 9.66254C28.0418 10.0867 28.2777 10.6615 28.275 11.26V14.34C28.275 15.5826 27.2676 16.59 26.025 16.59H22.935C21.6924 16.59 20.685 15.5826 20.685 14.34V11.25C20.685 10.0074 21.6924 9 22.935 9ZM26.025 15.08C26.437 15.0746 26.7696 14.742 26.775 14.33V11.26C26.775 10.8458 26.4392 10.51 26.025 10.51H22.935C22.5208 10.51 22.185 10.8458 22.185 11.26V14.33C22.1904 14.742 22.523 15.0746 22.935 15.08H26.025Z" stroke="#E60022"/>
<path fill-rule="evenodd" clip-rule="evenodd" d="M12.525 19.41H15.615C16.8576 19.41 17.865 20.4174 17.865 21.66V24.75C17.865 25.9926 16.8576 27 15.615 27H12.525C11.9265 27 11.3527 26.7616 10.9304 26.3375C10.5082 25.9133 10.2723 25.3385 10.275 24.74V21.66C10.275 20.4174 11.2823 19.41 12.525 19.41ZM15.615 25.49C16.0292 25.49 16.365 25.1542 16.365 24.74V21.66C16.3596 21.248 16.0269 20.9154 15.615 20.91H12.525C12.113 20.9154 11.7804 21.248 11.775 21.66V24.74C11.775 25.1542 12.1108 25.49 12.525 25.49H15.615Z" stroke="#E60022"/>
<path fill-rule="evenodd" clip-rule="evenodd" d="M22.935 19.41H26.025C27.2676 19.41 28.275 20.4174 28.275 21.66V24.74C28.2776 25.3385 28.0418 25.9133 27.6195 26.3375C27.1973 26.7616 26.6235 27 26.025 27H22.935C22.3365 27 21.7627 26.7616 21.3404 26.3375C20.9182 25.9133 20.6823 25.3385 20.685 24.74V21.66C20.685 20.4174 21.6923 19.41 22.935 19.41ZM26.025 25.49C26.4392 25.49 26.775 25.1542 26.775 24.74V21.66C26.7696 21.248 26.4369 20.9154 26.025 20.91H22.935C22.523 20.9154 22.1904 21.248 22.185 21.66V24.74C22.185 25.1542 22.5208 25.49 22.935 25.49H26.025Z" stroke="#E60022"/>
</svg>
