<svg width="29" height="28" viewBox="0 0 29 28" fill="none" xmlns="http://www.w3.org/2000/svg">
<path d="M9.82163 11.1183H17.6383C18.0734 11.0675 18.4014 10.6989 18.4014 10.2608C18.4014 9.82277 18.0734 9.45415 17.6383 9.40331H9.82163C9.49139 9.36473 9.16834 9.51921 8.99106 9.80049C8.81378 10.0818 8.81378 10.4399 8.99106 10.7211C9.16834 11.0024 9.49139 11.1569 9.82163 11.1183Z" fill="white"/>
<path d="M9.82163 20.4516H15.3983C15.7285 20.4902 16.0516 20.3357 16.2289 20.0545C16.4061 19.7732 16.4061 19.4151 16.2289 19.1338C16.0516 18.8525 15.7285 18.6981 15.3983 18.7366H9.82163C9.49139 18.6981 9.16834 18.8525 8.99106 19.1338C8.81378 19.4151 8.81378 19.7732 8.99106 20.0545C9.16834 20.3357 9.49139 20.4902 9.82163 20.4516Z" fill="white"/>
<path d="M19.8666 15.785H9.82163C9.49139 15.8236 9.16834 15.6691 8.99106 15.3878C8.81378 15.1065 8.81378 14.7484 8.99106 14.4672C9.16834 14.1859 9.49139 14.0314 9.82163 14.07H19.8666C20.3017 14.1208 20.6298 14.4894 20.6298 14.9275C20.6298 15.3655 20.3017 15.7341 19.8666 15.785Z" fill="white"/>
<path fill-rule="evenodd" clip-rule="evenodd" d="M18.9216 26.355H10.755C7.66672 26.3485 5.16662 23.8432 5.16663 20.755V7.92165C5.17304 4.83796 7.67127 2.33973 10.755 2.33331H18.9216C22.0099 2.33331 24.5152 4.83341 24.5216 7.92165V20.755C24.5216 22.2402 23.9316 23.6646 22.8814 24.7148C21.8312 25.765 20.4068 26.355 18.9216 26.355ZM10.755 4.18831C8.69575 4.19472 7.02803 5.86244 7.02163 7.92165V20.755C7.02162 22.8187 8.69121 24.4935 10.755 24.5H18.9216C20.9899 24.5 22.6666 22.8233 22.6666 20.755V7.92165C22.6602 5.8579 20.9854 4.1883 18.9216 4.18831H10.755Z" fill="white"/>
<path d="M9.82163 11.1183H17.6383C18.0734 11.0675 18.4014 10.6989 18.4014 10.2608C18.4014 9.82277 18.0734 9.45415 17.6383 9.40331H9.82163C9.49139 9.36473 9.16834 9.51921 8.99106 9.80049C8.81378 10.0818 8.81378 10.4399 8.99106 10.7211C9.16834 11.0024 9.49139 11.1569 9.82163 11.1183Z" stroke="white"/>
<path d="M9.82163 20.4516H15.3983C15.7285 20.4902 16.0516 20.3357 16.2289 20.0545C16.4061 19.7732 16.4061 19.4151 16.2289 19.1338C16.0516 18.8525 15.7285 18.6981 15.3983 18.7366H9.82163C9.49139 18.6981 9.16834 18.8525 8.99106 19.1338C8.81378 19.4151 8.81378 19.7732 8.99106 20.0545C9.16834 20.3357 9.49139 20.4902 9.82163 20.4516Z" stroke="white"/>
<path d="M19.8666 15.785H9.82163C9.49139 15.8236 9.16834 15.6691 8.99106 15.3878C8.81378 15.1065 8.81378 14.7484 8.99106 14.4672C9.16834 14.1859 9.49139 14.0314 9.82163 14.07H19.8666C20.3017 14.1208 20.6298 14.4894 20.6298 14.9275C20.6298 15.3655 20.3017 15.7341 19.8666 15.785Z" stroke="white"/>
<path fill-rule="evenodd" clip-rule="evenodd" d="M18.9216 26.355H10.755C7.66672 26.3485 5.16662 23.8432 5.16663 20.755V7.92165C5.17304 4.83796 7.67127 2.33973 10.755 2.33331H18.9216C22.0099 2.33331 24.5152 4.83341 24.5216 7.92165V20.755C24.5216 22.2402 23.9316 23.6646 22.8814 24.7148C21.8312 25.765 20.4068 26.355 18.9216 26.355ZM10.755 4.18831C8.69575 4.19472 7.02803 5.86244 7.02163 7.92165V20.755C7.02162 22.8187 8.69121 24.4935 10.755 24.5H18.9216C20.9899 24.5 22.6666 22.8233 22.6666 20.755V7.92165C22.6602 5.8579 20.9854 4.1883 18.9216 4.18831H10.755Z" stroke="white"/>
</svg>
