<svg width="29" height="28" viewBox="0 0 29 28" fill="none" xmlns="http://www.w3.org/2000/svg">
<path fill-rule="evenodd" clip-rule="evenodd" d="M18.397 3.75667L26.5636 11.9233C26.7278 12.0873 26.8201 12.3097 26.8203 12.5417V14.56C26.8162 16.704 25.5758 18.6532 23.6353 19.565V20.055C23.6289 22.8745 21.3448 25.1586 18.5253 25.165H7.94365C6.57822 25.1651 5.26955 24.6187 4.30955 23.6478C3.34954 22.6768 2.81806 21.362 2.83365 19.9967V13.65C2.86566 11.5937 4.12449 9.75603 6.03031 8.98333C6.06224 5.9501 8.52692 3.50622 11.5603 3.5H17.7786C18.0106 3.5002 18.233 3.59253 18.397 3.75667ZM23.752 11.585L18.7703 6.60333V10.22C18.7703 10.9739 19.3814 11.585 20.1353 11.585H23.752ZM21.8853 20.055C21.8853 21.9107 20.381 23.415 18.5253 23.415H7.94365C6.08797 23.415 4.58365 21.9107 4.58365 20.055V13.7083C4.58581 12.6118 5.12106 11.5848 6.01865 10.955V14.56C6.01865 17.6206 8.49973 20.1017 11.5603 20.1017H21.2786C21.4819 20.0944 21.6844 20.0749 21.8853 20.0433V20.055ZM11.5603 18.3517H21.2786C23.3701 18.3453 25.0639 16.6514 25.0703 14.56V13.51H20.1353C19.2638 13.51 18.4282 13.163 17.813 12.5457C17.1979 11.9283 16.8539 11.0915 16.857 10.22V5.285H11.5603C9.49171 5.32307 7.83298 7.00772 7.82698 9.07667V14.56C7.83298 16.6289 9.49171 18.3136 11.5603 18.3517Z" fill="white" stroke="white"/>
</svg>
