<svg width="37" height="36" viewBox="0 0 37 36" fill="none" xmlns="http://www.w3.org/2000/svg">
<path fill-rule="evenodd" clip-rule="evenodd" d="M26.465 13.0005L20.905 8.89048C19.2786 7.70317 17.0713 7.70317 15.445 8.89048L9.89499 13.0005C8.82043 13.7746 8.18109 15.0161 8.17499 16.3405V23.7705C8.23501 26.1637 10.2216 28.0564 12.615 28.0005H23.735C26.1283 28.0564 28.115 26.1637 28.175 23.7705V16.3305C28.1664 15.0118 27.5317 13.7758 26.465 13.0005ZM26.675 23.7705C26.6153 25.3354 25.3001 26.5568 23.735 26.5005H12.615C11.052 26.5512 9.74001 25.333 9.67499 23.7705V16.3405C9.68032 15.4904 10.0932 14.6945 10.785 14.2005L16.335 10.1005C17.4311 9.30006 18.9189 9.30006 20.015 10.1005L25.565 14.2105C26.2562 14.6959 26.6698 15.4858 26.675 16.3305V23.7705ZM13.675 21.7505H22.675C23.0892 21.7505 23.425 22.0863 23.425 22.5005C23.425 22.9147 23.0892 23.2505 22.675 23.2505H13.675C13.2608 23.2505 12.925 22.9147 12.925 22.5005C12.925 22.0863 13.2608 21.7505 13.675 21.7505Z" fill="white"/>
<path d="M20.905 8.89048L21.2022 8.4884L21.1998 8.48665L20.905 8.89048ZM26.465 13.0005L26.1678 13.4026L26.171 13.4049L26.465 13.0005ZM15.445 8.89048L15.1502 8.48664L15.1474 8.48866L15.445 8.89048ZM9.89499 13.0005L10.1873 13.4062L10.1925 13.4023L9.89499 13.0005ZM8.17499 16.3405L7.67499 16.3382V16.3405H8.17499ZM8.17499 23.7705H7.67483L7.67514 23.783L8.17499 23.7705ZM12.615 28.0005V27.5003L12.6033 27.5006L12.615 28.0005ZM23.735 28.0005L23.7467 27.5005H23.735V28.0005ZM28.175 23.7705L28.675 23.783V23.7705H28.175ZM28.175 16.3305H28.675L28.675 16.3272L28.175 16.3305ZM23.735 26.5005L23.753 26.0008L23.744 26.0005H23.735V26.5005ZM26.675 23.7705L27.1746 23.7895L27.175 23.78V23.7705H26.675ZM12.615 26.5005V26.0005H12.6069L12.5988 26.0007L12.615 26.5005ZM9.67499 23.7705H9.17499V23.7809L9.17542 23.7913L9.67499 23.7705ZM9.67499 16.3405L9.17499 16.3373V16.3405H9.67499ZM10.785 14.2005L11.0756 14.6074L11.0821 14.6026L10.785 14.2005ZM16.335 10.1005L16.0401 9.69668L16.0379 9.69832L16.335 10.1005ZM20.015 10.1005L20.3126 9.69866L20.3099 9.69669L20.015 10.1005ZM25.565 14.2105L25.2673 14.6124L25.2776 14.6197L25.565 14.2105ZM26.675 16.3305H27.175L27.175 16.3274L26.675 16.3305ZM20.6078 9.29255L26.1678 13.4026L26.7622 12.5984L21.2022 8.48841L20.6078 9.29255ZM15.7398 9.29432C17.1905 8.23523 19.1594 8.23523 20.6102 9.29432L21.1998 8.48665C19.3978 7.17112 16.9522 7.17112 15.1502 8.48665L15.7398 9.29432ZM10.1925 13.4023L15.7425 9.2923L15.1474 8.48866L9.59743 12.5987L10.1925 13.4023ZM8.67498 16.3428C8.68035 15.1784 9.24247 14.0868 10.1873 13.4062L9.60272 12.5948C8.39839 13.4624 7.68183 14.8539 7.67499 16.3382L8.67498 16.3428ZM8.67499 23.7705V16.3405H7.67499V23.7705H8.67499ZM12.6033 27.5006C10.4857 27.5501 8.72794 25.8755 8.67483 23.7579L7.67514 23.783C7.74208 26.452 9.95758 28.5627 12.6267 28.5003L12.6033 27.5006ZM23.735 27.5005H12.615V28.5005H23.735V27.5005ZM27.6751 23.7579C27.622 25.8755 25.8643 27.5501 23.7467 27.5006L23.7233 28.5003C26.3924 28.5627 28.6079 26.452 28.6748 23.783L27.6751 23.7579ZM27.675 16.3305V23.7705H28.675V16.3305H27.675ZM26.171 13.4049C27.1092 14.0868 27.6675 15.174 27.675 16.3337L28.675 16.3272C28.6654 14.8497 27.9542 13.4647 26.759 12.596L26.171 13.4049ZM23.717 27.0002C25.5577 27.0663 27.1045 25.63 27.1746 23.7895L26.1754 23.7514C26.1262 25.0409 25.0425 26.0472 23.753 26.0008L23.717 27.0002ZM12.615 27.0005H23.735V26.0005H12.615V27.0005ZM9.17542 23.7913C9.25185 25.6279 10.794 27.0599 12.6312 27.0002L12.5988 26.0007C11.31 26.0426 10.2282 25.0381 10.1746 23.7497L9.17542 23.7913ZM9.17499 16.3405V23.7705H10.175V16.3405H9.17499ZM10.4944 13.7936C9.67207 14.3808 9.18134 15.3269 9.175 16.3373L10.175 16.3436C10.1793 15.6539 10.5142 15.0082 11.0755 14.6074L10.4944 13.7936ZM16.0379 9.69832L10.4879 13.7983L11.0821 14.6026L16.6321 10.5026L16.0379 9.69832ZM20.3099 9.69669C19.0381 8.76799 17.3119 8.76799 16.0401 9.69669L16.6299 10.5043C17.5503 9.83213 18.7997 9.83213 19.7201 10.5043L20.3099 9.69669ZM25.8625 13.8087L20.3125 9.69866L19.7174 10.5023L25.2674 14.6123L25.8625 13.8087ZM27.175 16.3274C27.1688 15.321 26.676 14.3797 25.8523 13.8013L25.2776 14.6197C25.8365 15.0121 26.1708 15.6507 26.175 16.3335L27.175 16.3274ZM27.175 23.7705V16.3305H26.175V23.7705H27.175ZM22.675 21.2505H13.675V22.2505H22.675V21.2505ZM23.925 22.5005C23.925 21.8101 23.3653 21.2505 22.675 21.2505V22.2505C22.8131 22.2505 22.925 22.3624 22.925 22.5005H23.925ZM22.675 23.7505C23.3653 23.7505 23.925 23.1908 23.925 22.5005H22.925C22.925 22.6386 22.8131 22.7505 22.675 22.7505V23.7505ZM13.675 23.7505H22.675V22.7505H13.675V23.7505ZM12.425 22.5005C12.425 23.1908 12.9846 23.7505 13.675 23.7505V22.7505C13.5369 22.7505 13.425 22.6386 13.425 22.5005H12.425ZM13.675 21.2505C12.9846 21.2505 12.425 21.8101 12.425 22.5005H13.425C13.425 22.3624 13.5369 22.2505 13.675 22.2505V21.2505Z" fill="white"/>
</svg>
