<svg width="29" height="28" viewBox="0 0 29 28" fill="none" xmlns="http://www.w3.org/2000/svg">
<path d="M15.7017 6.36998C15.6954 6.8506 15.3073 7.2387 14.8267 7.24498C14.346 7.2387 13.9579 6.8506 13.9517 6.36998V3.20831C13.9517 2.72506 14.3434 2.33331 14.8267 2.33331C15.3099 2.33331 15.7017 2.72506 15.7017 3.20831V6.36998Z" fill="white"/>
<path d="M23.355 5.68165C23.0134 5.34045 22.4599 5.34045 22.1183 5.68165L19.9367 7.85165C19.6003 8.19979 19.6003 8.75183 19.9367 9.09998C20.2894 9.42467 20.8322 9.42467 21.185 9.09998L23.355 6.91831C23.6962 6.57669 23.6962 6.02327 23.355 5.68165Z" fill="white"/>
<path d="M22.6666 12.8683H25.735C26.2182 12.8683 26.61 13.2601 26.61 13.7433C26.61 14.2266 26.2182 14.6183 25.735 14.6183H22.6666C22.1834 14.6183 21.7917 14.2266 21.7917 13.7433C21.7917 13.2601 22.1834 12.8683 22.6666 12.8683Z" fill="white"/>
<path d="M6.77665 12.8683H3.70831C3.22506 12.8683 2.83331 13.2601 2.83331 13.7433C2.83331 14.2266 3.22506 14.6183 3.70831 14.6183H6.77665C7.25989 14.6183 7.65165 14.2266 7.65165 13.7433C7.65165 13.2601 7.25989 12.8683 6.77665 12.8683Z" fill="white"/>
<path d="M9.85009 8.47581C9.85009 8.71056 9.75577 8.93546 9.58831 9.09998C9.4218 9.25878 9.20007 9.34664 8.96998 9.34498C8.74012 9.34543 8.51882 9.25775 8.35165 9.09998L6.18165 6.91831C5.94755 6.70018 5.85119 6.37166 5.93036 6.06164C6.00954 5.75162 6.25162 5.50954 6.56164 5.43036C6.87167 5.35119 7.20018 5.44755 7.41831 5.68165L9.58831 7.85165C9.75577 8.01616 9.85009 8.24107 9.85009 8.47581Z" fill="white"/>
<path fill-rule="evenodd" clip-rule="evenodd" d="M14.8266 8.31831H14.9083C18.1459 8.43218 20.7 11.1106 20.66 14.35C20.6299 15.6242 20.1832 16.8536 19.3883 17.85C18.2621 19.3413 17.6815 21.1738 17.7433 23.0416C17.5571 24.5107 16.3074 25.612 14.8266 25.612C13.3459 25.612 12.0962 24.5107 11.91 23.0416C11.8688 21.0955 11.2203 19.2109 10.055 17.6516C8.71735 15.8689 8.51246 13.4798 9.52702 11.4953C10.5416 9.51083 12.5982 8.27792 14.8266 8.31831ZM14.8266 10.0683C13.2807 10.0666 11.8633 10.9283 11.1533 12.3016C10.4433 13.6749 10.5597 15.3296 11.455 16.59C12.3972 17.8923 13.0641 19.373 13.415 20.9416H16.215C16.4811 19.4204 17.1138 17.9868 18.0583 16.765C19.0363 15.5324 19.229 13.8512 18.5553 12.4293C17.8815 11.0074 16.3999 10.0919 14.8266 10.0683ZM13.66 23.0416C13.66 23.686 14.1823 24.2083 14.8267 24.2083C15.144 24.2274 15.4554 24.1162 15.6888 23.9004C15.9223 23.6846 16.0575 23.3828 16.0633 23.065V22.7383H13.66V23.0416Z" fill="white"/>
<path d="M14.8266 8.31831H14.9083C18.1459 8.43218 20.7 11.1106 20.66 14.35C20.6299 15.6242 20.1832 16.8536 19.3883 17.85C18.2621 19.3413 17.6815 21.1738 17.7433 23.0416C17.5571 24.5107 16.3074 25.612 14.8266 25.612C13.3459 25.612 12.0962 24.5107 11.91 23.0416C11.8688 21.0955 11.2203 19.2109 10.055 17.6516C8.71735 15.8689 8.51246 13.4798 9.52702 11.4953C10.5416 9.51083 12.5982 8.27792 14.8266 8.31831ZM14.8266 8.31831V10.0683M14.8266 10.0683C16.3999 10.0919 17.8815 11.0074 18.5553 12.4293C19.229 13.8512 19.0363 15.5324 18.0583 16.765C17.1138 17.9868 16.4811 19.4204 16.215 20.9416H13.415C13.0641 19.373 12.3972 17.8923 11.455 16.59C10.5597 15.3296 10.4433 13.6749 11.1533 12.3016C11.8633 10.9283 13.2807 10.0666 14.8266 10.0683ZM15.7017 6.36998C15.6954 6.8506 15.3073 7.2387 14.8267 7.24498C14.346 7.2387 13.9579 6.8506 13.9517 6.36998V3.20831C13.9517 2.72506 14.3434 2.33331 14.8267 2.33331C15.3099 2.33331 15.7017 2.72506 15.7017 3.20831V6.36998ZM14.8267 24.2083C14.1823 24.2083 13.66 23.686 13.66 23.0416V22.7383H16.0633V23.065C16.0575 23.3828 15.9223 23.6846 15.6888 23.9004C15.4554 24.1162 15.144 24.2274 14.8267 24.2083ZM23.355 5.68165C23.0134 5.34045 22.4599 5.34045 22.1183 5.68165L19.9367 7.85165C19.6003 8.19979 19.6003 8.75183 19.9367 9.09998C20.2894 9.42467 20.8322 9.42467 21.185 9.09998L23.355 6.91831C23.6962 6.57669 23.6962 6.02327 23.355 5.68165ZM22.6666 12.8683H25.735C26.2182 12.8683 26.61 13.2601 26.61 13.7433C26.61 14.2266 26.2182 14.6183 25.735 14.6183H22.6666C22.1834 14.6183 21.7917 14.2266 21.7917 13.7433C21.7917 13.2601 22.1834 12.8683 22.6666 12.8683ZM6.77665 12.8683H3.70831C3.22506 12.8683 2.83331 13.2601 2.83331 13.7433C2.83331 14.2266 3.22506 14.6183 3.70831 14.6183H6.77665C7.25989 14.6183 7.65165 14.2266 7.65165 13.7433C7.65165 13.2601 7.25989 12.8683 6.77665 12.8683ZM9.85009 8.47581C9.85009 8.71056 9.75577 8.93546 9.58831 9.09998C9.4218 9.25878 9.20007 9.34664 8.96998 9.34498C8.74012 9.34543 8.51882 9.25775 8.35165 9.09998L6.18165 6.91831C5.94755 6.70018 5.85119 6.37166 5.93036 6.06164C6.00954 5.75162 6.25162 5.50954 6.56164 5.43036C6.87167 5.35119 7.20018 5.44755 7.41831 5.68165L9.58831 7.85165C9.75577 8.01616 9.85009 8.24106 9.85009 8.47581Z" stroke="white"/>
</svg>
