<svg width="16" height="16" viewBox="0 0 16 16" fill="none" xmlns="http://www.w3.org/2000/svg">
<path d="M8.97509 9.26799C8.97509 8.6568 8.47962 8.16133 7.86842 8.16133C7.25723 8.16133 6.76175 8.6568 6.76175 9.26799C6.76084 9.52711 6.85312 9.77792 7.02175 9.97466C7.19167 10.1517 7.25057 10.4078 7.17509 10.6413L7.03509 11.0547C6.98094 11.2405 7.01673 11.441 7.13185 11.5967C7.24696 11.7524 7.42817 11.8453 7.62175 11.848H8.11509C8.31508 11.8479 8.50277 11.7514 8.61914 11.5887C8.73551 11.4261 8.76627 11.2173 8.70175 11.028L8.53509 10.6147C8.4596 10.3812 8.5185 10.1251 8.68842 9.94799C8.86085 9.76202 8.96234 9.52129 8.97509 9.26799Z" fill="white"/>
<path fill-rule="evenodd" clip-rule="evenodd" d="M11.0351 5.41466V3.33466C11.0355 2.79127 10.8147 2.27113 10.4236 1.89387C10.0325 1.51662 9.50478 1.31474 8.96176 1.33466H6.77509C6.23207 1.31474 5.70431 1.51662 5.31323 1.89387C4.92214 2.27113 4.70139 2.79127 4.70176 3.33466V5.41466C3.32077 5.90089 2.4809 7.30066 2.70175 8.74799L3.33509 12.5947C3.64746 14.1269 5.01167 15.2161 6.57509 15.1813H9.16175C10.7364 15.2208 12.1103 14.12 12.4151 12.5747L13.0484 8.72799C13.2573 7.28393 12.413 5.89451 11.0351 5.41466ZM5.70175 3.33466C5.72699 2.76641 6.20673 2.32541 6.77509 2.34799H8.96175C9.53011 2.32541 10.0098 2.76641 10.0351 3.33466V5.18133H5.70175V3.33466ZM11.2018 12.3747L11.8684 8.51466C11.9346 8.01529 11.7759 7.51229 11.4351 7.14133C11.0207 6.67137 10.4216 6.40593 9.79509 6.41466H5.94175C5.31735 6.40256 4.71863 6.66298 4.30175 7.12799C3.9691 7.50787 3.82253 8.01597 3.90175 8.51466L4.53509 12.3747C4.74179 13.3255 5.60289 13.9897 6.57509 13.948H9.16175C10.134 13.9897 10.9951 13.3255 11.2018 12.3747Z" fill="white"/>
</svg>
