<svg width="28" height="28" viewBox="0 0 28 28" fill="none" xmlns="http://www.w3.org/2000/svg">
<path d="M16.625 21.5833H11.9583C11.4751 21.5833 11.0833 21.9751 11.0833 22.4583C11.0833 22.9416 11.4751 23.3333 11.9583 23.3333H16.625C17.1082 23.3333 17.5 22.9416 17.5 22.4583C17.5 21.9751 17.1082 21.5833 16.625 21.5833Z" fill="white"/>
<path d="M11.9583 15.1667H16.625C17.1082 15.1667 17.5 14.7749 17.5 14.2917C17.5 13.8084 17.1082 13.4167 16.625 13.4167H11.9583C11.4751 13.4167 11.0833 13.8084 11.0833 14.2917C11.0833 14.7749 11.4751 15.1667 11.9583 15.1667Z" fill="white"/>
<path d="M11.9583 7.00001H16.625C17.1082 7.00001 17.5 6.60826 17.5 6.12501C17.5 5.64176 17.1082 5.25001 16.625 5.25001H11.9583C11.4751 5.25001 11.0833 5.64176 11.0833 6.12501C11.0833 6.60826 11.4751 7.00001 11.9583 7.00001Z" fill="white"/>
<path d="M16.625 21.5833H11.9583C11.4751 21.5833 11.0833 21.9751 11.0833 22.4583C11.0833 22.9416 11.4751 23.3333 11.9583 23.3333H16.625C17.1082 23.3333 17.5 22.9416 17.5 22.4583C17.5 21.9751 17.1082 21.5833 16.625 21.5833Z" stroke="white"/>
<path d="M11.9583 15.1667H16.625C17.1082 15.1667 17.5 14.7749 17.5 14.2917C17.5 13.8084 17.1082 13.4167 16.625 13.4167H11.9583C11.4751 13.4167 11.0833 13.8084 11.0833 14.2917C11.0833 14.7749 11.4751 15.1667 11.9583 15.1667Z" stroke="white"/>
<path d="M11.9583 7.00001H16.625C17.1082 7.00001 17.5 6.60826 17.5 6.12501C17.5 5.64176 17.1082 5.25001 16.625 5.25001H11.9583C11.4751 5.25001 11.0833 5.64176 11.0833 6.12501C11.0833 6.60826 11.4751 7.00001 11.9583 7.00001Z" stroke="white"/>
</svg>
