<svg width="37" height="36" viewBox="0 0 37 36" fill="none" xmlns="http://www.w3.org/2000/svg">
<path fill-rule="evenodd" clip-rule="evenodd" d="M12.715 8.00222H23.215C24.5868 7.96192 25.9178 8.47191 26.9114 9.4186C27.9051 10.3653 28.4789 11.67 28.505 13.0422V20.6322C28.4232 23.4531 26.0865 25.6827 23.265 25.6322H21.645C21.2378 25.6333 20.8525 25.8168 20.595 26.1322L19.065 28.0822C18.8087 28.3994 18.4227 28.5837 18.015 28.5837C17.6072 28.5837 17.2213 28.3994 16.965 28.0822L15.385 26.0922C15.1275 25.7768 14.7422 25.5933 14.335 25.5922H12.715C9.89341 25.6427 7.55672 23.4131 7.47498 20.5922V13.0022C7.55135 10.179 9.89127 7.94624 12.715 8.00222ZM23.225 24.1322C25.2335 24.1827 26.9051 22.6004 26.965 20.5922V13.0422C26.9051 11.03 25.2273 9.44617 23.215 9.50222H12.715C10.7026 9.44617 9.02486 11.03 8.96498 13.0422V20.5922C9.02486 22.6044 10.7026 24.1883 12.715 24.1322H14.335C15.2021 24.1324 16.0223 24.5259 16.565 25.2022L17.965 26.9822L19.365 25.2022C19.9077 24.5259 20.7279 24.1324 21.595 24.1322H23.225Z" fill="white"/>
<path d="M14.215 14.9622C13.8008 14.9622 13.465 15.298 13.465 15.7122V18.1122C13.465 18.5264 13.8008 18.8622 14.215 18.8622C14.6292 18.8622 14.965 18.5264 14.965 18.1122V15.7122C14.965 15.298 14.6292 14.9622 14.215 14.9622Z" fill="white"/>
<path d="M17.965 14.9622C17.5508 14.9622 17.215 15.298 17.215 15.7122V18.1122C17.215 18.5264 17.5508 18.8622 17.965 18.8622C18.3792 18.8622 18.715 18.5264 18.715 18.1122V15.7122C18.715 15.298 18.3792 14.9622 17.965 14.9622Z" fill="white"/>
<path d="M21.715 14.9622C21.3008 14.9622 20.965 15.298 20.965 15.7122V18.1122C20.965 18.5264 21.3008 18.8622 21.715 18.8622C22.1292 18.8622 22.465 18.5264 22.465 18.1122V15.7122C22.465 15.298 22.1292 14.9622 21.715 14.9622Z" fill="white"/>
<path fill-rule="evenodd" clip-rule="evenodd" d="M12.715 8.00222H23.215C24.5868 7.96192 25.9178 8.47191 26.9114 9.4186C27.9051 10.3653 28.4789 11.67 28.505 13.0422V20.6322C28.4232 23.4531 26.0865 25.6827 23.265 25.6322H21.645C21.2378 25.6333 20.8525 25.8168 20.595 26.1322L19.065 28.0822C18.8087 28.3994 18.4227 28.5837 18.015 28.5837C17.6072 28.5837 17.2213 28.3994 16.965 28.0822L15.385 26.0922C15.1275 25.7768 14.7422 25.5933 14.335 25.5922H12.715C9.89341 25.6427 7.55672 23.4131 7.47498 20.5922V13.0022C7.55135 10.179 9.89127 7.94624 12.715 8.00222ZM23.225 24.1322C25.2335 24.1827 26.9051 22.6004 26.965 20.5922V13.0422C26.9051 11.03 25.2273 9.44617 23.215 9.50222H12.715C10.7026 9.44617 9.02486 11.03 8.96498 13.0422V20.5922C9.02486 22.6044 10.7026 24.1883 12.715 24.1322H14.335C15.2021 24.1324 16.0223 24.5259 16.565 25.2022L17.965 26.9822L19.365 25.2022C19.9077 24.5259 20.7279 24.1324 21.595 24.1322H23.225Z" stroke="white"/>
<path d="M14.215 14.9622C13.8008 14.9622 13.465 15.298 13.465 15.7122V18.1122C13.465 18.5264 13.8008 18.8622 14.215 18.8622C14.6292 18.8622 14.965 18.5264 14.965 18.1122V15.7122C14.965 15.298 14.6292 14.9622 14.215 14.9622Z" stroke="white"/>
<path d="M17.965 14.9622C17.5508 14.9622 17.215 15.298 17.215 15.7122V18.1122C17.215 18.5264 17.5508 18.8622 17.965 18.8622C18.3792 18.8622 18.715 18.5264 18.715 18.1122V15.7122C18.715 15.298 18.3792 14.9622 17.965 14.9622Z" stroke="white"/>
<path d="M21.715 14.9622C21.3008 14.9622 20.965 15.298 20.965 15.7122V18.1122C20.965 18.5264 21.3008 18.8622 21.715 18.8622C22.1292 18.8622 22.465 18.5264 22.465 18.1122V15.7122C22.465 15.298 22.1292 14.9622 21.715 14.9622Z" stroke="white"/>
</svg>
