<svg width="20" height="20" viewBox="0 0 20 20" fill="none" xmlns="http://www.w3.org/2000/svg">
<path d="M3.95833 7.5C3.61315 7.5 3.33333 7.77982 3.33333 8.125V11.2583C3.33333 11.6035 3.61315 11.8833 3.95833 11.8833C4.30351 11.8833 4.58333 11.6035 4.58333 11.2583V8.125C4.58333 7.77982 4.30351 7.5 3.95833 7.5Z" fill="white"/>
<path d="M9.79166 7.5C9.44648 7.5 9.16666 7.77982 9.16666 8.125V11.2583C9.16666 11.6035 9.44648 11.8833 9.79166 11.8833C10.1368 11.8833 10.4167 11.6035 10.4167 11.2583V8.125C10.4167 7.77982 10.1368 7.5 9.79166 7.5Z" fill="white"/>
<path d="M15.625 7.5C15.2798 7.5 15 7.77982 15 8.125V11.2583C15 11.6035 15.2798 11.8833 15.625 11.8833C15.9702 11.8833 16.25 11.6035 16.25 11.2583V8.125C16.25 7.77982 15.9702 7.5 15.625 7.5Z" fill="white"/>
<path d="M3.95833 7.5C3.61315 7.5 3.33333 7.77982 3.33333 8.125V11.2583C3.33333 11.6035 3.61315 11.8833 3.95833 11.8833C4.30351 11.8833 4.58333 11.6035 4.58333 11.2583V8.125C4.58333 7.77982 4.30351 7.5 3.95833 7.5Z" stroke="white"/>
<path d="M9.79166 7.5C9.44648 7.5 9.16666 7.77982 9.16666 8.125V11.2583C9.16666 11.6035 9.44648 11.8833 9.79166 11.8833C10.1368 11.8833 10.4167 11.6035 10.4167 11.2583V8.125C10.4167 7.77982 10.1368 7.5 9.79166 7.5Z" stroke="white"/>
<path d="M15.625 7.5C15.2798 7.5 15 7.77982 15 8.125V11.2583C15 11.6035 15.2798 11.8833 15.625 11.8833C15.9702 11.8833 16.25 11.6035 16.25 11.2583V8.125C16.25 7.77982 15.9702 7.5 15.625 7.5Z" stroke="white"/>
</svg>
