<svg width="28" height="28" viewBox="0 0 28 28" fill="none" xmlns="http://www.w3.org/2000/svg">
<path fill-rule="evenodd" clip-rule="evenodd" d="M17.2592 5.37801L22.5675 10.6863C23.5375 11.6605 23.5375 13.2355 22.5675 14.2097L19.3125 17.4647C19.1275 17.6555 18.9704 17.8716 18.8459 18.1063L17.0492 21.7113C16.6876 22.427 16.0058 22.9266 15.2145 23.0558C14.4232 23.185 13.6179 22.9282 13.0475 22.3647L9.93252 19.2497L6.16419 23.018C6.00099 23.1833 5.7781 23.2758 5.54585 23.2747C5.31281 23.2799 5.08833 23.1868 4.92752 23.018C4.76075 22.8555 4.66669 22.6325 4.66669 22.3997C4.66669 22.1668 4.76075 21.9439 4.92752 21.7813L8.69585 18.013L5.58085 14.898C5.01235 14.3299 4.75209 13.5229 4.88159 12.7297C5.01109 11.9365 5.51452 11.2541 6.23419 10.8963L9.83919 9.09968C10.074 8.9751 10.29 8.818 10.4809 8.63301L13.7592 5.37801C14.7331 4.42958 16.2853 4.42958 17.2592 5.37801ZM17.9942 16.1347L21.2375 12.8913C21.4907 12.6555 21.5063 12.2597 21.2725 12.0047L15.9758 6.70801C15.8594 6.58827 15.6995 6.52071 15.5325 6.52071C15.3655 6.52071 15.2056 6.58827 15.0892 6.70801L11.8458 9.95135C11.505 10.2864 11.1107 10.5624 10.6792 10.768L7.07418 12.5763C6.89174 12.6611 6.76447 12.8322 6.73585 13.0313C6.69798 13.2284 6.76408 13.4311 6.91085 13.568L14.3775 21.0347C14.488 21.156 14.6452 21.2239 14.8092 21.2213C15.0486 21.2254 15.2679 21.0883 15.3692 20.8713L17.1775 17.3013C17.3831 16.8698 17.6591 16.4755 17.9942 16.1347Z" fill="white" stroke="white"/>
</svg>
