<svg width="28" height="28" viewBox="0 0 28 28" fill="none" xmlns="http://www.w3.org/2000/svg">
<path d="M4.95825 22.1667C5.43887 22.1604 5.82696 21.7723 5.83325 21.2917V18.9583C5.82066 17.6395 6.33901 16.371 7.27162 15.4384C8.20423 14.5057 9.47273 13.9874 10.7916 14H21.5132L16.0066 19.5417C15.8072 19.8923 15.8734 20.3338 16.1668 20.6106C16.4602 20.8874 16.9048 20.9278 17.2432 20.7083L24.2432 13.7083C24.3223 13.6274 24.3856 13.5325 24.4299 13.4283C24.5234 13.2124 24.5234 12.9675 24.4299 12.7517C24.3856 12.6475 24.3223 12.5526 24.2432 12.4717L17.2432 5.47166C16.9016 5.13046 16.3482 5.13046 16.0066 5.47166C15.6654 5.81328 15.6654 6.3667 16.0066 6.70832L21.5132 12.25H10.7916C9.00669 12.2311 7.28938 12.9318 6.0272 14.1939C4.76502 15.4561 4.06432 17.1734 4.08325 18.9583V21.2917C4.08953 21.7723 4.47762 22.1604 4.95825 22.1667Z" fill="white" stroke="white"/>
</svg>
