<svg width="20" height="20" viewBox="0 0 20 20" fill="none" xmlns="http://www.w3.org/2000/svg">
<path fill-rule="evenodd" clip-rule="evenodd" d="M3.3848 6.39119C4.5733 3.53733 7.35801 1.67511 10.4495 1.66686C13.7813 1.64931 16.7439 3.78346 17.7825 6.94933C18.8211 10.1152 17.6984 13.5896 15.0037 15.5491C12.3089 17.5086 8.65771 17.5057 5.96612 15.5419L3.56612 17.9419C3.3221 18.1856 2.9268 18.1856 2.68278 17.9419C2.43907 17.6978 2.43907 17.3025 2.68278 17.0585L5.00778 14.7335C2.83604 12.5334 2.1963 9.24505 3.3848 6.39119ZM4.49909 11.8076C5.49699 14.2124 7.8459 15.7786 10.4495 15.7752V15.7419C13.983 15.7374 16.8516 12.8837 16.8745 9.35019C16.8778 6.74664 15.3116 4.39773 12.9069 3.39983C10.5022 2.40194 7.73306 2.95182 5.89207 4.79281C4.05108 6.6338 3.5012 9.40291 4.49909 11.8076Z" fill="white" stroke="white"/>
</svg>
